<?xml version="1.0" encoding="UTF-8"?><svg id="_イヤー_2" xmlns="http://www.w3.org/2000/svg" viewBox="0 0 95.59 22.74"><defs><style>.cls-1{fill:#231815;}</style></defs><g id="_イヤー_1-2"><g><path class="cls-1" d="M0,22.74V5.12c1.23,0,2.67-.11,4.34-.34v1.99c.82-1.33,1.81-2,2.97-2,1.24,0,2.24,.63,2.98,1.88,.74,1.25,1.12,2.93,1.12,5.03,0,4.64-1.41,6.97-4.22,6.97-1.16,0-2.11-.48-2.85-1.44v5.54H0ZM5.73,6.69c-.96,0-1.44,1.64-1.44,4.91s.46,5.11,1.38,5.11c.82,0,1.24-1.7,1.24-5.11s-.39-4.91-1.18-4.91Z"/><path class="cls-1" d="M21.87,9.89h-2.97c.1-.51,.19-.89,.27-1.14,.11-.36,.17-.68,.17-.97,0-.56-.18-.84-.55-.84-.28,0-.54,.37-.8,1.1s-.38,1.51-.38,2.33v7.89h-4.34V5.11h.84c1,.01,2.16-.1,3.49-.34v2.17c.71-1.45,1.57-2.17,2.59-2.17,1.39,0,2.09,.85,2.09,2.54,0,.44-.07,.95-.2,1.53-.05,.24-.12,.59-.23,1.06Z"/><path class="cls-1" d="M23.71,18.29V5.12c1.35,0,2.8-.12,4.34-.35v13.51h-4.34ZM25.91,0c1.35,0,2.02,.57,2.02,1.73s-.67,1.73-2.02,1.73-2.02-.57-2.02-1.73,.67-1.73,2.02-1.73Z"/><path class="cls-1" d="M40.23,5.11l-4.03,13.17h-3.02l-4.16-13.17h4.62l2.54,8.82,2.61-8.82h1.43Z"/><path class="cls-1" d="M45.97,9.75v3.44h-5.85v-3.44h5.85Z"/><path class="cls-1" d="M47.32,18.29V.44c1.28,0,2.73-.09,4.34-.27V7.37c.93-1.73,2.25-2.6,3.96-2.6,2.01,0,3.02,.99,3.02,2.98v10.53h-4.34V8.27c0-.76-.23-1.14-.69-1.14s-.92,.49-1.33,1.46-.62,2.01-.62,3.13v6.56h-4.34Z"/><path class="cls-1" d="M61.12,18.29V5.12c1.35,0,2.8-.12,4.34-.35v13.51h-4.34ZM63.32,0c1.35,0,2.02,.57,2.02,1.73s-.67,1.73-2.02,1.73-2.02-.57-2.02-1.73,.67-1.73,2.02-1.73Z"/><path class="cls-1" d="M76.52,9.89h-2.97c.1-.51,.19-.89,.27-1.14,.11-.36,.17-.68,.17-.97,0-.56-.18-.84-.55-.84-.28,0-.54,.37-.8,1.1s-.38,1.51-.38,2.33v7.89h-4.34V5.11h.84c1,.01,2.16-.1,3.49-.34v2.17c.71-1.45,1.57-2.17,2.59-2.17,1.39,0,2.09,.85,2.09,2.54,0,.44-.07,.95-.2,1.53-.05,.24-.12,.59-.23,1.06Z"/><path class="cls-1" d="M90.4,17.81c-1.06,.45-2.1,.68-3.1,.68-1.49,0-2.41-.51-2.76-1.53-.72,1.06-1.76,1.59-3.11,1.59-2.53,0-3.79-1.29-3.79-3.87,0-1.96,1.16-3.34,3.47-4.13,2.12-.73,3.19-1.61,3.19-2.64,0-1.35-.61-2.03-1.83-2.03-1.41,0-2.12,.65-2.12,1.96,0,.41,.11,.95,.33,1.62l-2.15-.46c-.06-.41-.08-.79-.08-1.15,0-2.09,1.74-3.14,5.21-3.14s4.94,.98,4.94,2.93v8c0,.82,.24,1.23,.73,1.23,.15,0,.37-.09,.67-.27l.42,1.2Zm-6.15-7.45c-.27,.34-.58,.62-.94,.85-.9,.57-1.34,1.54-1.34,2.9,0,1.74,.31,2.61,.93,2.61,.9,0,1.35-.86,1.35-2.59v-3.78Z"/><path class="cls-1" d="M91.25,18.29V5.12c1.35,0,2.8-.12,4.34-.35v13.51h-4.34ZM93.45,0c1.35,0,2.02,.57,2.02,1.73s-.67,1.73-2.02,1.73-2.02-.57-2.02-1.73,.67-1.73,2.02-1.73Z"/></g></g></svg>